<?xml version="1.0" encoding="utf-8"?>
<!-- Generator: Adobe Illustrator 22.0.1, SVG Export Plug-In . SVG Version: 6.00 Build 0)  -->
<svg version="1.0" id="Capa_1" xmlns="http://www.w3.org/2000/svg" xmlns:xlink="http://www.w3.org/1999/xlink" x="0px" y="0px"
	 viewBox="0 0 250 250" style="enable-background:new 0 0 250 250;" xml:space="preserve">
<style type="text/css">
	.st0{fill:#38515E;}
	.st1{fill:#FFFFFF;}
</style>
<g>
	<path class="st1" d="M128.4,212.3c6.4-2,12.3-3.9,18.2-5.8c5.3-1.7,10.5-3.5,15.9-5c2.4-0.7,2.7-1.7,2.4-4.1
		c-1.9-14.2-3.5-28.3-5.3-42.5c-0.1-1.1-0.2-2.1-0.3-3.2c-0.2-2.3,0.6-4.1,3-4.4c2.5-0.3,3.7,1.4,4,3.6c0.6,4.3,1.1,8.7,1.6,13
		c1.3,10.7,2.6,21.3,3.8,32c0.3,3,1.4,4.7,4.6,5.6c10.9,2.9,21.8,6.3,32.6,9.5c0.7,0.2,1.5,0.3,2.9,0.6c-1.4-6-2.8-11.6-4.1-17.1
		c-4.6-18.8-9.3-37.6-13.8-56.4c-0.8-3.2-1.9-5.6-5.5-6.3c-2-0.4-4.2-1.2-5.8-2.4c-1.1-0.9-1.9-3-1.6-4.3c0.2-0.9,2.7-2.2,3.8-1.9
		c4.3,1.2,8.5,2.9,12.6,4.7c0.9,0.4,1.7,1.9,2,3.1c7,28.2,14,56.3,20.9,84.5c1,4.1-1.3,6-5.4,4.8c-14-4.1-28-8.4-42.1-12.4
		c-2.1-0.6-4.7-0.6-6.8,0c-12.9,3.9-25.6,8.2-38.5,12.1c-1.7,0.5-3.7,0.5-5.4,0c-12.8-4-25.6-8.2-38.5-12.2
		c-1.9-0.6-4.2-0.6-6.1-0.1c-14.1,4-28.1,8.3-42.1,12.3c-1.5,0.4-4,0.5-4.8-0.3c-1-1.1-1.2-3.5-0.8-5.1
		c6.6-27.4,13.4-54.8,20.1-82.2c0.7-3.1,2.1-5,5.2-5.9c2.9-0.8,5.7-2.2,8.6-3.2c2.2-0.8,4.4-0.8,5.3,1.8c0.9,2.5-0.5,4.4-2.9,4.8
		c-7.9,1.4-10.2,6.6-11.8,13.8c-4.8,21.6-10.5,43.1-15.8,64.6c-0.2,0.9-0.3,1.8-0.5,3.1c1-0.2,1.8-0.2,2.5-0.4
		c11.2-3.3,22.4-6.7,33.6-9.8c2.5-0.7,3.4-2,3.6-4.4c1.7-14.5,3.5-29.1,5.3-43.6c0.1-0.6,0.1-1.2,0.2-1.8c0.4-2.4,1.3-4.6,4.2-4.2
		c2.6,0.3,3.2,2.4,2.9,4.8c-1.6,13.1-3.1,26.3-4.8,39.4c-1.2,8.9-1.3,8.9,7.3,11.6c9.3,3,18.6,6,28.5,9.1c0-3.1,0-5.8,0-8.4
		c0-5.1,0-10.2,0-15.2c0-5.7,0.9-7.8,3.6-7.5c4.6,0.6,3.4,4.4,3.4,7.3c0.1,6.6,0,13.2,0,19.8C128.4,209.5,128.4,210.6,128.4,212.3z"
		/>
	<path class="st1" d="M121.5,29.4c37.1,0,65,28.9,63.5,62.7c-0.6,13.9-6.7,25.8-15.6,36c-7.3,8.4-15.4,16-23,24
		c-6.1,6.4-11.9,13-17.8,19.6c-2.5,2.8-4.7,3-7.1,0.4c-11.1-11.8-22.4-23.3-33.2-35.3c-6-6.7-12.1-13.7-16.6-21.5
		c-11.8-20.2-8.7-45.5,7-64C90.7,37.1,106.1,29.7,121.5,29.4z M124.4,164.3c11-11,21.7-21.7,32.2-32.5c3.4-3.5,6.5-7.2,9.5-11
		c5.4-7,9.6-14.6,11.1-23.5c5-30.2-18.8-59.7-49.4-60.7C105.1,35.8,88,46,77.5,66C67.4,85.4,69.7,104.5,84,121
		C96.9,136,111,150,124.4,164.3z"/>
	<path class="st1" d="M95,91.3c1.9,0,3.3,0,4.7,0c18.7,0,37.3,0,56,0c5.6,0,6.2,0.6,6.2,6c0,3.7,0,7.3,0,11c0,2.3-0.9,4-3.4,4.1
		c-2.7,0.1-3.6-1.8-3.7-4.2c0-3.1,0-6.1,0-9.5c-19.9,0-39.5,0-59.7,0c0,3.1,0,6.1,0,9.1c0,2.5-0.7,4.6-3.6,4.6
		c-2.7-0.1-3.5-2-3.5-4.4c0-13.3,0-26.7,0-40c0-2.4,0.8-4.4,3.4-4.5c2.9-0.1,3.7,2,3.7,4.5C94.9,75.6,95,83.1,95,91.3z"/>
	<path class="st1" d="M137,84.3c-6.4,0-12.7,0-19.1,0c-2.5,0-5-0.3-5.1-3.5c-0.1-3.1,2.3-3.7,4.9-3.7c13,0,25.9,0,38.9,0
		c2.6,0,5,0.5,5,3.6c-0.1,3.1-2.6,3.5-5.1,3.5C150,84.3,143.5,84.3,137,84.3z"/>
	<path class="st1" d="M104.8,84.3c-2.4,0-4.3-0.8-4.4-3.5c0-2.6,1.8-3.6,4.2-3.6c2.4,0,4.3,0.8,4.4,3.5
		C109.1,83.3,107.2,84.2,104.8,84.3z"/>
</g>
</svg>
