<?xml version="1.0" encoding="utf-8"?>
<!-- Generator: Adobe Illustrator 22.0.1, SVG Export Plug-In . SVG Version: 6.00 Build 0)  -->
<svg version="1.0" id="Capa_1" xmlns="http://www.w3.org/2000/svg" xmlns:xlink="http://www.w3.org/1999/xlink" x="0px" y="0px"
	 viewBox="0 0 250 250" style="enable-background:new 0 0 250 250;" xml:space="preserve">
<style type="text/css">
	.st0{fill:#38515E;}
	.st1{fill:#FFFFFF;}
</style>
<g>
	<g>
		<path class="st0" d="M34,172.9l2.2-7.5H40l-5.9,17.3h-3.4l-5.9-17.3h3.8l2.3,7.5l1.5,5.7L34,172.9z"/>
		<path class="st0" d="M46.4,182.6h-3.6v-17.3h3.6V182.6z"/>
		<path class="st0" d="M65.5,182.6h-3.8l-1.2-3.6h-6.3l-1.2,3.6h-3.8l6.1-17.3h4.2L65.5,182.6z M55.9,173.9l-0.7,2.1h4.4l-0.7-2.1
			l-1.5-5L55.9,173.9z"/>
		<path class="st0" d="M76.8,181.6c-1,0.9-2.4,1.4-4.1,1.4c-1.8,0-3.2-0.5-4.1-1.4c-1-0.9-1.5-2.3-1.5-3.9v-1.5h3.4v1.6
			c0,1.5,0.7,2.2,2.1,2.2c1.4,0,2.1-0.7,2.1-2.2v-12.4h3.6v12.3C78.2,179.4,77.8,180.7,76.8,181.6z"/>
		<path class="st0" d="M97.3,182.6h-3.8l-1.2-3.6H86l-1.2,3.6H81l6.1-17.3h4.2L97.3,182.6z M87.7,173.9l-0.7,2.1h4.4l-0.7-2.1
			l-1.5-5L87.7,173.9z"/>
		<path class="st0" d="M110.3,174.3c0.9,0.2,1.5,0.5,1.8,1c0.4,0.5,0.6,1.1,0.7,1.9l0.7,5.5h-3.7l-0.4-4.4c-0.1-0.8-0.3-1.4-0.7-1.7
			c-0.4-0.4-1-0.5-1.9-0.5h-3.2v6.7h-3.6v-17.3h8.1c1.9,0,3.3,0.4,4.2,1.3c0.9,0.9,1.3,2,1.3,3.4
			C113.6,172.3,112.5,173.7,110.3,174.3z M103.7,168.4v4.7h3.5c1,0,1.7-0.2,2.2-0.6c0.5-0.4,0.7-1,0.7-1.8c0-0.7-0.2-1.2-0.6-1.6
			c-0.4-0.4-1-0.6-1.9-0.6H103.7z"/>
		<path class="st0" d="M127.4,175.2v4.4h9.2v3h-12.8v-17.3h12.6v3h-9v3.7h8.1v3.1H127.4z"/>
		<path class="st0" d="M150.2,176.4v-11.1h3.6v17.3h-3.5l-6.9-11.1v11.1h-3.6v-17.3h3.5L150.2,176.4z"/>
		<path class="st0" d="M163.2,165.3h14v3.2H172v14.1h-3.6v-14.1h-5.2V165.3z"/>
		<path class="st0" d="M190,174.3c0.9,0.2,1.5,0.5,1.8,1c0.4,0.5,0.6,1.1,0.7,1.9l0.7,5.5h-3.7l-0.4-4.4c-0.1-0.8-0.3-1.4-0.7-1.7
			c-0.4-0.4-1-0.5-1.9-0.5h-3.2v6.7h-3.6v-17.3h8.1c1.9,0,3.3,0.4,4.2,1.3c0.9,0.9,1.3,2,1.3,3.4C193.3,172.3,192.2,173.7,190,174.3
			z M183.4,168.4v4.7h3.5c1,0,1.7-0.2,2.2-0.6c0.5-0.4,0.7-1,0.7-1.8c0-0.7-0.2-1.2-0.6-1.6c-0.4-0.4-1-0.6-1.9-0.6H183.4z"/>
		<path class="st0" d="M200.5,175.2v4.4h9.2v3h-12.8v-17.3h12.6v3h-9v3.7h8.1v3.1H200.5z"/>
		<path class="st0" d="M223.2,176.4v-11.1h3.6v17.3h-3.5l-6.9-11.1v11.1h-3.6v-17.3h3.5L223.2,176.4z"/>
	</g>
	<g>
		<path class="st0" d="M52.9,204v-6.3h2.2v17.3h-1.9v-2c-0.4,0.7-0.9,1.2-1.7,1.7c-0.7,0.4-1.5,0.6-2.4,0.6c-1.7,0-3-0.6-4-1.9
			c-1-1.2-1.5-2.8-1.5-4.8c0-1.9,0.5-3.4,1.5-4.6c1-1.2,2.3-1.8,3.9-1.8C50.8,202.2,52.1,202.8,52.9,204z M46.9,212.1
			c0.6,0.9,1.5,1.3,2.5,1.3s1.9-0.4,2.6-1.3c0.7-0.9,1-2,1-3.5c0-1.4-0.3-2.5-1-3.3c-0.6-0.8-1.5-1.2-2.6-1.2c-1.1,0-2,0.4-2.6,1.2
			c-0.6,0.8-0.9,1.9-0.9,3.3C46,210.1,46.3,211.2,46.9,212.1z"/>
		<path class="st0" d="M70.6,208.5v0.8h-9.4c0,1.4,0.4,2.4,1,3.1c0.7,0.7,1.6,1.1,2.7,1.1c1.7,0,2.9-0.8,3.5-2.5l2,0.2
			c-0.4,1.3-1.1,2.3-2.1,3s-2.2,1.1-3.5,1.1c-1.9,0-3.3-0.6-4.4-1.8c-1.1-1.2-1.6-2.8-1.6-4.8c0-2,0.5-3.5,1.6-4.7
			c1-1.2,2.5-1.8,4.3-1.8c1.8,0,3.2,0.6,4.2,1.7C70.1,205,70.6,206.5,70.6,208.5z M67.3,205c-0.6-0.6-1.5-0.9-2.5-0.9
			c-1,0-1.8,0.3-2.5,0.9c-0.6,0.6-1,1.5-1.2,2.7h7.3C68.3,206.5,68,205.6,67.3,205z"/>
		<path class="st0" d="M78.6,215.4c-3.2,0-4.9-1.4-5.2-4.3h2.1c0.1,0.9,0.4,1.5,0.9,1.9c0.5,0.4,1.3,0.6,2.2,0.6s1.7-0.2,2.2-0.5
			c0.5-0.3,0.8-0.8,0.8-1.5c0-0.9-0.7-1.5-2-1.8l-2.5-0.5c-2.3-0.5-3.5-1.6-3.5-3.4c0-1.1,0.4-2,1.2-2.7c0.8-0.6,2-1,3.5-1
			c1.5,0,2.7,0.3,3.5,1c0.9,0.7,1.4,1.6,1.6,2.9h-2.2c-0.2-1.4-1.2-2.2-3-2.2c-1.7,0-2.5,0.6-2.5,1.7c0,0.4,0.1,0.8,0.4,1.1
			c0.3,0.3,0.8,0.5,1.5,0.6l2.4,0.5c1.3,0.3,2.2,0.7,2.8,1.3c0.6,0.6,0.9,1.3,0.9,2.2c0,1.2-0.5,2.2-1.4,2.9
			C81.5,215,80.2,215.4,78.6,215.4z"/>
		<path class="st0" d="M95.7,204v-6.3h2.2v17.3H96v-2c-0.4,0.7-0.9,1.2-1.7,1.7c-0.7,0.4-1.5,0.6-2.4,0.6c-1.7,0-3-0.6-4-1.9
			c-1-1.2-1.5-2.8-1.5-4.8c0-1.9,0.5-3.4,1.5-4.6c1-1.2,2.3-1.8,3.9-1.8C93.6,202.2,94.8,202.8,95.7,204z M89.7,212.1
			c0.6,0.9,1.5,1.3,2.5,1.3s1.9-0.4,2.6-1.3c0.7-0.9,1-2,1-3.5c0-1.4-0.3-2.5-1-3.3c-0.6-0.8-1.5-1.2-2.6-1.2c-1.1,0-2,0.4-2.6,1.2
			c-0.6,0.8-0.9,1.9-0.9,3.3C88.7,210.1,89,211.2,89.7,212.1z"/>
		<path class="st0" d="M113.4,208.5v0.8H104c0,1.4,0.4,2.4,1,3.1c0.7,0.7,1.6,1.1,2.7,1.1c1.7,0,2.9-0.8,3.5-2.5l2,0.2
			c-0.4,1.3-1.1,2.3-2.1,3s-2.2,1.1-3.5,1.1c-1.9,0-3.3-0.6-4.4-1.8c-1.1-1.2-1.6-2.8-1.6-4.8c0-2,0.5-3.5,1.6-4.7
			c1-1.2,2.5-1.8,4.3-1.8c1.8,0,3.2,0.6,4.2,1.7C112.8,205,113.4,206.5,113.4,208.5z M110.1,205c-0.6-0.6-1.5-0.9-2.5-0.9
			c-1,0-1.8,0.3-2.5,0.9c-0.6,0.6-1,1.5-1.2,2.7h7.3C111.1,206.5,110.7,205.6,110.1,205z"/>
		<path class="st0" d="M133.7,211l4.7-13.2h3.1v17.3h-2.1v-11.5l0-3.1l-1.2,3.1l-4.1,11.5H132l-4.5-11.9l-1.1-2.7l0.1,3.1v11.5h-2.1
			v-17.3h3.2l4.9,13.2l0.6,1.7L133.7,211z"/>
		<path class="st0" d="M157.2,213.4h0.4v1.7h-1.2c-1.3,0-2.1-0.6-2.2-1.8c-0.4,0.7-1.1,1.2-1.8,1.6c-0.8,0.4-1.7,0.6-2.7,0.6
			c-1.3,0-2.3-0.3-3.1-1c-0.7-0.6-1.1-1.5-1.1-2.7c0-2.2,1.4-3.5,4.3-3.9l3.2-0.4c0.6-0.1,0.9-0.4,0.9-0.9v-0.5
			c0-1.3-0.9-1.9-2.8-1.9c-0.9,0-1.6,0.2-2.1,0.5c-0.4,0.3-0.7,0.9-0.8,1.7H146c0.2-2.7,2-4.1,5.2-4.1s4.9,1.3,4.9,4v6.2
			c0,0.4,0.1,0.7,0.2,0.9C156.5,213.3,156.8,213.4,157.2,213.4z M150.1,213.6c1,0,1.9-0.3,2.6-0.9s1.1-1.3,1.1-2.1v-1.8l-3.7,0.6
			c-1.6,0.2-2.4,1-2.4,2.2c0,0.6,0.2,1.1,0.6,1.5C148.8,213.5,149.4,213.6,150.1,213.6z"/>
		<path class="st0" d="M169.1,204v-6.3h2.2v17.3h-1.9v-2c-0.4,0.7-0.9,1.2-1.7,1.7c-0.7,0.4-1.5,0.6-2.4,0.6c-1.7,0-3-0.6-4-1.9
			c-1-1.2-1.5-2.8-1.5-4.8c0-1.9,0.5-3.4,1.5-4.6c1-1.2,2.3-1.8,3.9-1.8C167,202.2,168.2,202.8,169.1,204z M163.1,212.1
			c0.6,0.9,1.5,1.3,2.5,1.3s1.9-0.4,2.6-1.3c0.7-0.9,1-2,1-3.5c0-1.4-0.3-2.5-1-3.3c-0.6-0.8-1.5-1.2-2.6-1.2c-1.1,0-2,0.4-2.6,1.2
			c-0.6,0.8-0.9,1.9-0.9,3.3C162.1,210.1,162.4,211.2,163.1,212.1z"/>
		<path class="st0" d="M182,202.2c0.2,0,0.4,0,0.5,0v2.2c-0.1,0-0.4,0-0.8,0c-0.9,0-1.7,0.3-2.4,1c-0.7,0.7-1.1,1.6-1.2,2.8v6.9
			h-2.2v-12.5h2.1v2.5C178.8,203.1,180.2,202.2,182,202.2z"/>
		<path class="st0" d="M187.6,200.2h-2.2v-2.4h2.2V200.2z M187.6,215.1h-2.2v-12.5h2.2V215.1z"/>
		<path class="st0" d="M200.6,204v-6.3h2.2v17.3h-1.9v-2c-0.4,0.7-0.9,1.2-1.7,1.7c-0.7,0.4-1.5,0.6-2.4,0.6c-1.7,0-3-0.6-4-1.9
			c-1-1.2-1.5-2.8-1.5-4.8c0-1.9,0.5-3.4,1.5-4.6c1-1.2,2.3-1.8,3.9-1.8C198.5,202.2,199.7,202.8,200.6,204z M194.6,212.1
			c0.6,0.9,1.5,1.3,2.5,1.3s1.9-0.4,2.6-1.3c0.7-0.9,1-2,1-3.5c0-1.4-0.3-2.5-1-3.3c-0.6-0.8-1.5-1.2-2.6-1.2c-1.1,0-2,0.4-2.6,1.2
			c-0.6,0.8-0.9,1.9-0.9,3.3C193.6,210.1,193.9,211.2,194.6,212.1z"/>
	</g>
	<g>
		<path class="st0" d="M152.4,129.5c2.7,3.6,5.1,6.8,7.5,10c0.4,0.5,0.9,0.9,1,1.5c0.1,0.6-0.1,1.4-0.5,1.8c-0.3,0.3-1.2,0-1.7-0.2
			c-0.4-0.2-0.7-0.7-0.9-1.1c-1.4-2.9-3.7-3.4-6.7-3.4c-19.2,0.1-38.5,0.1-57.7,0c-1.6,0-2.7,0.4-3.5,1.8c-0.5,0.8-1,1.7-1.7,2.3
			c-0.5,0.4-1.6,0.8-2.1,0.6c-1-0.5-0.8-1.5-0.2-2.3c2.3-3,4.5-6,6.8-9.1c0.4-0.5,0.7-1,1.3-1.9c-2.4,0-4.5,0-6.5,0
			c-5.7,0-9-3.3-9-9c0-23.3,0-46.6,0-69.9c0-6,3.2-10.3,7.7-13.8c5.3-4.1,11.5-6.1,18-7.2c13.7-2.3,27.4-2.3,41.1,0.6
			c5.3,1.1,10.4,3,14.8,6.3c5.3,4,8.2,9,8.1,15.9c-0.2,21.9-0.2,43.7,0,65.6c0.1,9-5.8,11.5-11.6,11.5
			C155.3,129.5,154.2,129.5,152.4,129.5z M81.5,90.4c0.6,0,1,0.1,1.4,0.1c26.8,0,53.7,0,80.5,0c1.6,0,1.7-0.6,1.7-1.9
			c0-9.3,0-18.7,0-28c0-0.6-0.1-1.2-0.1-1.8c-27.9,0-55.7,0-83.6,0C81.5,69.3,81.5,79.8,81.5,90.4z M81.6,93.3
			c-0.1,0.5-0.2,0.7-0.2,1c0,9,0,18.1,0,27.1c0,3.1,2.3,5.1,5.7,5.1c23.3,0,46.6,0,69.9,0c5.6,0,8.1-2.6,8.1-8.2
			c0-7.5,0-15.1,0-22.6c0-2.4,0-2.4-2.5-2.4c-26.3,0-52.6,0-78.9,0C83.1,93.3,82.4,93.3,81.6,93.3z M81.6,55.8c0.7,0,1.4,0,2,0
			c26.4,0,52.8,0,79.2,0c0.4,0,0.8,0.1,1.1,0c0.5-0.3,1.1-0.7,1.2-1.1c0.8-6.9-1.6-12.4-7.5-16.3c-3.5-2.3-7.4-3.9-11.5-4.9
			c-13.2-3.2-26.6-3.2-39.9-1.2c-6.2,0.9-12.1,2.7-17.4,6.2C82.6,42.6,80.4,48.3,81.6,55.8z M153.1,135.2c-1.3-1.7-2.3-3.3-3.5-4.6
			c-0.5-0.5-1.4-1-2.1-1c-16.2-0.1-32.3,0-48.5,0c-0.5,0-1.1,0-1.3,0.3c-1.4,1.7-2.7,3.4-4.2,5.4
			C113.5,135.2,133.1,135.2,153.1,135.2z"/>
		<path class="st0" d="M107.7,108.8c0,4.3-3.5,7.9-7.9,7.9c-4.3,0-7.9-3.5-7.9-7.8c0-4.3,3.5-7.9,7.9-7.9
			C104.2,100.9,107.7,104.5,107.7,108.8z M99.9,103.9c-2.8,0-5.1,2.2-5,5c0,2.7,2.4,5.1,5.1,5c2.7,0,4.9-2.3,4.9-4.9
			C104.9,106.1,102.7,103.9,99.9,103.9z"/>
		<path class="st0" d="M146.6,101c4.3,0,7.9,3.5,7.9,7.8c0,4.3-3.5,7.9-7.8,7.9c-4.3,0.1-7.9-3.5-7.9-7.8
			C138.7,104.6,142.3,101,146.6,101z M151.6,108.9c0-2.8-2.2-5-5-5c-2.8,0-5.1,2.3-5,5c0,2.6,2.3,4.9,4.9,5
			C149.3,113.9,151.6,111.6,151.6,108.9z"/>
		<path class="st0" d="M123.3,50c-2.9,0-5.9,0-8.8,0c-3.4,0-5.7-2.3-5.8-5.5c-0.1-3.5,1.9-6.1,5.4-6.1c6.2-0.2,12.3-0.1,18.5,0
			c3.3,0.1,5.5,2.8,5.3,6c-0.1,3.2-2.5,5.6-5.8,5.6C129.2,50,126.2,50,123.3,50z M123.3,47.1c2.8,0,5.5,0,8.3,0c2.2,0,3.4-1.1,3.4-3
			c0-1.8-1.2-3-3.3-3c-5.6,0-11.3,0-16.9,0c-2.1,0-3.2,1.2-3.2,3.1c0,1.9,1.1,2.9,3.3,3C117.6,47.2,120.5,47.1,123.3,47.1z"/>
	</g>
</g>
</svg>
