<?xml version="1.0" encoding="utf-8"?>
<!-- Generator: Adobe Illustrator 22.0.1, SVG Export Plug-In . SVG Version: 6.00 Build 0)  -->
<svg version="1.0" id="Capa_1" xmlns="http://www.w3.org/2000/svg" xmlns:xlink="http://www.w3.org/1999/xlink" x="0px" y="0px"
	 viewBox="0 0 250 250" style="enable-background:new 0 0 250 250;" xml:space="preserve">
<style type="text/css">
	.st0{fill:#38515E;}
</style>
<g>
	<g>
		<g>
			<path class="st0" d="M126.3,69.6c-1,0-1.8-0.8-1.8-1.8V39c0-1,0.8-1.8,1.8-1.8c1,0,1.8,0.8,1.8,1.8v28.9
				C128.1,68.8,127.3,69.6,126.3,69.6z"/>
			<path class="st0" d="M136.7,49.6h-20.8c-1,0-1.8-0.8-1.8-1.8c0-1,0.8-1.8,1.8-1.8h20.8c1,0,1.8,0.8,1.8,1.8
				C138.5,48.8,137.7,49.6,136.7,49.6z"/>
		</g>
		<g>
			<g>
				<path class="st0" d="M62.4,212.8H20.6c-1,0-1.8-0.8-1.8-1.8v-66.3c0-0.7,0.4-1.3,1.1-1.6l64.8-27.6c0.7-0.3,1.6-0.1,2.1,0.6
					c0.5,0.7,0.5,1.6-0.1,2.2l-22.5,27.1V211C64.2,212,63.4,212.8,62.4,212.8z M22.4,209.2h38.3v-64.5c0-0.4,0.1-0.8,0.4-1.1
					l18.3-22l-57,24.3V209.2z"/>
				<path class="st0" d="M232.1,212.8h-41.8c-1,0-1.8-0.8-1.8-1.8v-65.6l-22.5-27.1c-0.5-0.6-0.5-1.5-0.1-2.2
					c0.5-0.7,1.4-0.9,2.1-0.6l64.8,27.6c0.7,0.3,1.1,0.9,1.1,1.6V211C233.8,212,233,212.8,232.1,212.8z M192,209.2h38.3v-63.3
					l-57-24.3l18.3,22c0.3,0.3,0.4,0.7,0.4,1.1V209.2z"/>
			</g>
			<g>
				<path class="st0" d="M52.8,203.7H30.2c-1,0-1.8-0.8-1.8-1.8v-40.4c0-7.2,5.9-13.1,13.1-13.1c7.2,0,13.1,5.9,13.1,13.1v40.4
					C54.6,202.9,53.8,203.7,52.8,203.7z M32,200.1h19.1v-38.6c0-5.3-4.3-9.6-9.5-9.6c-5.3,0-9.5,4.3-9.5,9.6V200.1z"/>
				<path class="st0" d="M41.5,203.7c-1,0-1.8-0.8-1.8-1.8v-51.7c0-1,0.8-1.8,1.8-1.8c1,0,1.8,0.8,1.8,1.8v51.7
					C43.3,202.9,42.5,203.7,41.5,203.7z"/>
				<path class="st0" d="M52.8,177.8H30.2c-1,0-1.8-0.8-1.8-1.8c0-1,0.8-1.8,1.8-1.8h22.6c1,0,1.8,0.8,1.8,1.8
					C54.6,177,53.8,177.8,52.8,177.8z"/>
			</g>
			<g>
				<path class="st0" d="M222.5,203.7h-22.6c-1,0-1.8-0.8-1.8-1.8v-40.4c0-7.2,5.9-13.1,13.1-13.1c7.2,0,13.1,5.9,13.1,13.1v40.4
					C224.2,202.9,223.4,203.7,222.5,203.7z M201.6,200.1h19.1v-38.6c0-5.3-4.3-9.6-9.5-9.6s-9.5,4.3-9.5,9.6V200.1z"/>
				<path class="st0" d="M211.1,203.7c-1,0-1.8-0.8-1.8-1.8v-51.7c0-1,0.8-1.8,1.8-1.8c1,0,1.8,0.8,1.8,1.8v51.7
					C212.9,202.9,212.1,203.7,211.1,203.7z"/>
				<path class="st0" d="M222.5,177.8h-22.6c-1,0-1.8-0.8-1.8-1.8c0-1,0.8-1.8,1.8-1.8h22.6c1,0,1.8,0.8,1.8,1.8
					C224.2,177,223.4,177.8,222.5,177.8z"/>
			</g>
		</g>
		<g>
			<path class="st0" d="M190.2,212.8H62.4c-1,0-1.8-0.8-1.8-1.8v-66.3c0-0.4,0.1-0.8,0.4-1.1L125,66.7c0.7-0.8,2-0.8,2.7,0
				l63.9,76.9c0.3,0.3,0.4,0.7,0.4,1.1V211C192,212,191.2,212.8,190.2,212.8z M64.2,209.2h124.3v-63.9l-62.1-74.7l-62.1,74.7V209.2z
				"/>
			<g>
				<path class="st0" d="M126.3,141.2c-12.3,0-22.4-10-22.4-22.4c0-12.3,10-22.4,22.4-22.4c12.3,0,22.4,10,22.4,22.4
					C148.7,131.2,138.7,141.2,126.3,141.2z M126.3,100c-10.4,0-18.8,8.5-18.8,18.8s8.5,18.8,18.8,18.8s18.8-8.5,18.8-18.8
					S136.7,100,126.3,100z"/>
				<path class="st0" d="M146.6,116.7h-40.5c-1,0-1.8-0.8-1.8-1.8c0-1,0.8-1.8,1.8-1.8h40.5c1,0,1.8,0.8,1.8,1.8
					C148.3,115.9,147.6,116.7,146.6,116.7z"/>
				<path class="st0" d="M126.3,116.7c-0.6,0-1.1-0.3-1.4-0.8l-9.9-14.2c-0.6-0.8-0.4-1.9,0.4-2.5c0.8-0.6,1.9-0.4,2.5,0.4l8.5,12.1
					l8.5-12.1c0.6-0.8,1.7-1,2.5-0.4c0.8,0.6,1,1.7,0.4,2.5l-9.9,14.2C127.5,116.5,126.9,116.7,126.3,116.7z"/>
			</g>
			<g>
				<path class="st0" d="M161.9,212.8H90.8c-1,0-1.8-0.8-1.8-1.8v-14.8c0-23.7,15.7-40.9,37.3-40.9c21.6,0,37.3,17.2,37.3,40.9V211
					C163.7,212,162.9,212.8,161.9,212.8z M92.5,209.2h67.6v-13c0-21.6-14.2-37.3-33.8-37.3c-19.6,0-33.8,15.7-33.8,37.3V209.2z"/>
				<g>
					<path class="st0" d="M150.5,212.8c-1,0-1.8-0.8-1.8-1.8v-43.3c0-1,0.8-1.8,1.8-1.8c1,0,1.8,0.8,1.8,1.8V211
						C152.3,212,151.5,212.8,150.5,212.8z"/>
					<path class="st0" d="M138.4,212.8c-1,0-1.8-0.8-1.8-1.8v-51c0-1,0.8-1.8,1.8-1.8c1,0,1.8,0.8,1.8,1.8v51
						C140.2,212,139.4,212.8,138.4,212.8z"/>
					<path class="st0" d="M126.3,212.8c-1,0-1.8-0.8-1.8-1.8v-53.8c0-1,0.8-1.8,1.8-1.8c1,0,1.8,0.8,1.8,1.8V211
						C128.1,212,127.3,212.8,126.3,212.8z"/>
					<path class="st0" d="M114.3,212.8c-1,0-1.8-0.8-1.8-1.8v-51c0-1,0.8-1.8,1.8-1.8c1,0,1.8,0.8,1.8,1.8v51
						C116,212,115.2,212.8,114.3,212.8z"/>
					<path class="st0" d="M102.2,212.8c-1,0-1.8-0.8-1.8-1.8v-43.3c0-1,0.8-1.8,1.8-1.8c1,0,1.8,0.8,1.8,1.8V211
						C103.9,212,103.1,212.8,102.2,212.8z"/>
				</g>
			</g>
		</g>
		<path class="st0" d="M245.9,212.8H4.1c-1,0-1.8-0.8-1.8-1.8c0-1,0.8-1.8,1.8-1.8h241.8c1,0,1.8,0.8,1.8,1.8
			C247.7,212,246.9,212.8,245.9,212.8z"/>
	</g>
</g>
</svg>
