<?xml version="1.0" encoding="utf-8"?>
<!-- Generator: Adobe Illustrator 22.0.1, SVG Export Plug-In . SVG Version: 6.00 Build 0)  -->
<svg version="1.0" id="Capa_1" xmlns="http://www.w3.org/2000/svg" xmlns:xlink="http://www.w3.org/1999/xlink" x="0px" y="0px"
	 viewBox="0 0 250 250" style="enable-background:new 0 0 250 250;" xml:space="preserve">
<style type="text/css">
	.st0{fill:#38515E;}
	.st1{fill:#FFFFFF;}
</style>
<g>
	<g>
		<path class="st0" d="M133.1,190L133.1,190c-0.8,0-1.6-0.6-1.8-1.4l-3.4-12.6l-12.6-3.4c-0.8-0.2-1.4-1-1.4-1.8
			c0-0.8,0.6-1.6,1.4-1.8l12.6-3.4l3.4-12.6c0.4-1.6,3.2-1.6,3.6,0l3.4,12.6l12.6,3.4c0.8,0.2,1.4,1,1.4,1.8c0,0.8-0.6,1.6-1.4,1.8
			l-12.6,3.4l-3.4,12.6C134.6,189.5,133.9,190,133.1,190z M122.8,170.8l7,1.9c0.6,0.2,1.1,0.7,1.3,1.3l1.9,7l1.9-7
			c0.2-0.6,0.7-1.1,1.3-1.3l7-1.9l-7-1.9c-0.6-0.2-1.1-0.7-1.3-1.3l-1.9-7l-1.9,7c-0.2,0.6-0.7,1.1-1.3,1.3L122.8,170.8z"/>
		<path class="st0" d="M147.5,77.8L147.5,77.8c-0.8,0-1.6-0.6-1.8-1.4l-3.4-12.6l-12.6-3.4c-0.8-0.2-1.4-1-1.4-1.8s0.6-1.6,1.4-1.8
			l12.6-3.4l3.4-12.6c0.4-1.6,3.2-1.6,3.6,0l3.4,12.6l12.6,3.4c0.8,0.2,1.4,1,1.4,1.8s-0.6,1.6-1.4,1.8l-12.6,3.4l-3.4,12.6
			C149,77.2,148.3,77.8,147.5,77.8z M137.2,58.6l7,1.9c0.6,0.2,1.1,0.7,1.3,1.3l1.9,7l1.9-7c0.2-0.6,0.7-1.1,1.3-1.3l7-1.9l-7-1.9
			c-0.6-0.2-1.1-0.7-1.3-1.3l-1.9-7l-1.9,7c-0.2,0.6-0.7,1.1-1.3,1.3L137.2,58.6z"/>
		<path class="st0" d="M198.3,116.8L198.3,116.8c-0.8,0-1.6-0.6-1.8-1.4l-3.4-12.6l-12.6-3.4c-0.8-0.2-1.4-1-1.4-1.8
			s0.6-1.6,1.4-1.8l12.6-3.4l3.4-12.6c0.4-1.6,3.2-1.6,3.6,0l3.4,12.6l12.6,3.4c0.8,0.2,1.4,1,1.4,1.8s-0.6,1.6-1.4,1.8l-12.6,3.4
			l-3.4,12.6C199.9,116.3,199.1,116.8,198.3,116.8z M188.1,97.6l7,1.9c0.6,0.2,1.1,0.7,1.3,1.3l1.9,7l1.9-7c0.2-0.6,0.7-1.1,1.3-1.3
			l7-1.9l-7-1.9c-0.6-0.2-1.1-0.7-1.3-1.3l-1.9-7l-1.9,7c-0.2,0.6-0.7,1.1-1.3,1.3L188.1,97.6z"/>
		<g>
			<path class="st0" d="M91.1,170.6c-9.9,0-17.9-8-17.9-17.9c0-9.9,8-17.9,17.9-17.9c3.9,0,7.7,1.3,10.8,3.6l9.6-32l-41-11.4
				l-12.7,43.8c-0.1,0.2-0.1,0.4-0.2,0.5c-2.7,6.9-9.3,11.4-16.7,11.4c-9.9,0-17.9-8-17.9-17.9s8-17.9,17.9-17.9
				c3.9,0,7.7,1.3,10.8,3.6L66,70.2c0.3-1,1.3-1.5,2.2-1.3l59.3,15.1c0.5,0.1,0.9,0.4,1.2,0.9c0.3,0.4,0.3,1,0.2,1.4L108,158.6
				c-0.1,0.2-0.1,0.4-0.2,0.5C105.1,166,98.5,170.6,91.1,170.6z M91.1,138.4c-7.8,0-14.2,6.4-14.2,14.2c0,7.8,6.4,14.2,14.2,14.2
				c5.9,0,11.3-3.8,13.3-9.4c0-0.1,0.1-0.2,0.1-0.3l20.2-69.9L69.1,73l-14.7,49.3c-0.2,0.6-0.7,1.1-1.4,1.3
				c-0.7,0.1-1.3-0.1-1.8-0.5c-2.7-2.9-6.4-4.5-10.3-4.5c-7.8,0-14.2,6.4-14.2,14.2S33,147,40.8,147c5.9,0,11.3-3.8,13.3-9.4
				c0-0.1,0.1-0.2,0.1-0.3l13.1-45.1c0.3-1,1.3-1.5,2.3-1.3l44.6,12.3c0.5,0.1,0.9,0.5,1.1,0.9c0.2,0.4,0.3,1,0.2,1.4l-11,36.6
				c-0.2,0.6-0.7,1.1-1.4,1.3c-0.7,0.1-1.3-0.1-1.8-0.5C98.8,140,95.1,138.4,91.1,138.4z"/>
		</g>
		<g>
			<path class="st0" d="M165.8,219.6c-0.7,0-1.5,0-2.2-0.1c-4.8-0.6-9-3-12-6.7c-3-3.8-4.3-8.5-3.7-13.2c0.6-4.8,3-9,6.7-12
				c3.1-2.4,6.8-3.7,10.7-3.8l-26.3-66.6c-0.3-0.7-0.1-1.5,0.5-2.1c0.6-0.5,14.5-13.1,29.9-6.9c0.4,0.2,0.8,0.5,1,0.9l5.6,11.9
				c0.3,0.7,0.2,1.4-0.3,2c-0.5,0.6-1.2,0.8-1.9,0.6c-3.9-1.2-14.7-3.3-20.3-0.2l29.4,72.6c0.1,0.2,0.1,0.4,0.1,0.5
				c2.1,7.1-0.3,14.8-6,19.3C173.7,218.3,169.8,219.6,165.8,219.6z M165.7,187.5c-3.2,0-6.2,1-8.7,3c-3,2.3-4.9,5.7-5.3,9.5
				c-0.5,3.8,0.6,7.5,2.9,10.5c2.3,3,5.7,4.9,9.5,5.3c3.8,0.5,7.5-0.6,10.5-2.9c4.7-3.7,6.6-10,4.7-15.7c0-0.1-0.1-0.2-0.1-0.3
				l-29.8-73.5c-0.3-0.8-0.1-1.6,0.6-2.1c5.6-4.5,15.5-3.3,21-2.1l-3.6-7.7c-10.8-3.9-21.2,3.2-24.3,5.7l26.9,68.1
				c0.2,0.6,0.1,1.3-0.3,1.8c-0.4,0.5-1.1,0.8-1.7,0.7C167.2,187.6,166.4,187.5,165.7,187.5z"/>
		</g>
	</g>
</g>
</svg>
