<?xml version="1.0" encoding="utf-8"?>
<!-- Generator: Adobe Illustrator 22.0.1, SVG Export Plug-In . SVG Version: 6.00 Build 0)  -->
<svg version="1.0" id="Capa_1" xmlns="http://www.w3.org/2000/svg" xmlns:xlink="http://www.w3.org/1999/xlink" x="0px" y="0px"
	 viewBox="0 0 250 250" style="enable-background:new 0 0 250 250;" xml:space="preserve">
<style type="text/css">
	.st0{fill:#38515E;}
	.st1{fill:#FFFFFF;}
</style>
<g>
	<path class="st1" d="M48.9,115.1c0-6.5,0-12.5,0-18.5c0-8.8,4.8-13.6,13.6-13.6c13.6,0,27.3,0,40.9,0c8.9,0,13.6,4.8,13.7,13.6
		c0,6,0,12,0,18.2c5.4,0,10.4,0,16,0c0-5.8,0-11.7,0-17.5c0-9.7,4.5-14.3,14.2-14.3c13.5,0,27,0,40.5,0c8.8,0,13.5,4.8,13.5,13.7
		c0,5.7,0.1,11.5,0.1,17.2c0,0.2,0.2,0.5,0.6,1.1c5.7,0,11.7,0,17.7,0c8.9,0,13.7,4.8,13.7,13.6c0,18.7,0,37.4,0,56.1
		c0,0.4,0,0.8,0,1.2c0.1,2.9-0.9,5.2-4.2,5.2c-3-0.1-3.9-2.3-3.9-5c0-4.8,0-9.6,0-14.4c0-1.3,0-2.6,0-4.2c-66.9,0-133.4,0-200.5,0
		c0,5.4,0,10.9,0,16.3c0,1.3,0.4,3-0.2,3.9c-0.9,1.4-2.5,3.2-3.8,3.2c-1.3,0-2.8-1.8-3.9-3.1c-0.5-0.7-0.2-2.1-0.2-3.1
		c0-18.6,0-37.1,0-55.7c0-9.1,4.7-13.8,13.8-13.9C36.5,115,42.5,115.1,48.9,115.1z M225.3,159c0-1.4,0-2.7,0-4c0-8.1,0-16.3,0-24.4
		c0-6.9-0.6-7.4-7.6-7.5c-60.5,0-121,0-181.5,0c-12,0-11.4-0.3-11.4,11.4c0.1,8.1,0,16.2,0,24.5C91.7,159,158,159,225.3,159z
		 M56.9,114.7c17.6,0,34.7,0,52.1,0c0-6.6,0-12.8,0-19.1c0-2.9-1.6-4.5-4.4-4.5c-14.4,0-28.8-0.1-43.2,0c-2.9,0-4.4,1.6-4.4,4.5
		C56.9,101.9,56.9,108.1,56.9,114.7z M141.1,114.7c17.6,0,34.7,0,52.1,0c0-6.6,0-12.8,0-19.1c0-2.9-1.6-4.5-4.4-4.5
		c-14.4,0-28.8,0-43.2,0c-2.6,0-4.4,1.4-4.4,4.1C141.1,101.6,141.1,108,141.1,114.7z"/>
	<path class="st1" d="M125.3,58.9c25.9,0,51.8,0,77.8,0c14.2,0,22.3,8.1,22.3,22.4c0,6.7,0,13.4,0,20c0,3-0.7,5.6-4.2,5.5
		c-3.3-0.1-3.9-2.7-3.8-5.5c0.1-7.1,0.1-14.2,0-21.2C217.2,72,212.5,67,204.4,67c-52.9,0-105.8,0-158.7,0c-8.1,0-12.8,5-12.8,13.2
		c0,7.1,0,14.2,0,21.2c0,2.8-0.6,5.4-3.9,5.5c-3.6,0.1-4.2-2.5-4.2-5.5c0.1-7.1,0-14.2,0-21.2c0-12.7,8.4-21.2,21.1-21.2
		C72.4,58.9,98.8,58.9,125.3,58.9z"/>
</g>
</svg>
