<?xml version="1.0" encoding="utf-8"?>
<!-- Generator: Adobe Illustrator 22.0.1, SVG Export Plug-In . SVG Version: 6.00 Build 0)  -->
<svg version="1.0" id="Capa_1" xmlns="http://www.w3.org/2000/svg" xmlns:xlink="http://www.w3.org/1999/xlink" x="0px" y="0px"
	 viewBox="0 0 250 250" style="enable-background:new 0 0 250 250;" xml:space="preserve">
<style type="text/css">
	.st0{fill:#38515E;}
	.st1{fill:#FFFFFF;}
</style>
<g>
	<g>
		<g>
			<g>
				<path class="st0" d="M88.8,161.4c-1.5,0-3-0.1-4.4-0.4c-11.7-2.3-18.5-13.4-17.2-28.2c1.3-14.8,12.8-77.6,13.3-80.3
					c0.2-0.9,0.9-1.6,1.8-1.7c1.3-0.1,32.7-3.2,46.8,12.7c0.4,0.5,0.6,1.1,0.5,1.8c-0.4,2.4-10.8,59.6-15,75.1
					C111,154.2,99.4,161.4,88.8,161.4z M84.4,54.8c-1.8,10-11.8,65-13,78.3c-1.1,12.7,4.2,21.8,13.9,23.7
					c8.1,1.6,21.4-2.8,25.5-17.6c3.8-14.2,13.2-65.8,14.7-73.7C114.1,53.8,90.6,54.4,84.4,54.8z"/>
				<path class="st0" d="M70.6,228.1c-0.1,0-0.3,0-0.4,0c-1.1-0.2-1.8-1.3-1.6-2.5l14.3-67.1c0.2-1.1,1.3-1.8,2.5-1.6
					c1.1,0.2,1.8,1.3,1.6,2.5l-14.3,67.1C72.4,227.4,71.6,228.1,70.6,228.1z"/>
				<path class="st0" d="M84.4,232.5c-0.2,0-0.3,0-0.5-0.1L57,225.6c-1.1-0.3-1.8-1.4-1.5-2.5c0.3-1.1,1.4-1.8,2.5-1.5l26.9,6.8
					c1.1,0.3,1.8,1.4,1.5,2.5C86.2,231.9,85.3,232.5,84.4,232.5z"/>
				<path class="st0" d="M88.8,161.4c-1.5,0-3-0.1-4.4-0.4c-11.7-2.3-18.5-13.4-17.2-28.2c0.4-4.6,1.8-14.1,4.2-28.4
					c0.2-1,1-1.7,2.1-1.7c37.5,0,49-22.1,49.5-23c0.5-0.9,1.5-1.4,2.5-1c1,0.3,1.6,1.3,1.4,2.4c-1.6,8.2-9.5,49.8-12.1,59.4
					C111,154.2,99.4,161.4,88.8,161.4z M75.2,106.8c-2.2,13.2-3.5,22.1-3.9,26.4c-1.1,12.7,4.2,21.8,13.9,23.7
					c8.1,1.6,21.4-2.8,25.5-17.6c1.7-6.4,6.2-28.7,10.3-50.1C114.2,96.4,100.3,106.3,75.2,106.8z"/>
			</g>
		</g>
		<g>
			<path class="st0" d="M169.6,161.4c-10.6,0-22.2-7.2-25.9-21.1c-4.2-15.5-14.5-72.6-15-75.1c-0.1-0.6,0.1-1.3,0.5-1.8
				c14.2-15.8,45.5-12.8,46.8-12.7c0.9,0.1,1.7,0.8,1.8,1.7c0.5,2.7,12,65.4,13.3,80.3c1.3,14.8-5.5,25.8-17.2,28.2
				C172.6,161.2,171.1,161.4,169.6,161.4z M133,65.5c1.4,7.9,10.8,59.5,14.7,73.7c4,14.9,17.3,19.3,25.5,17.6
				c9.7-1.9,15-11,13.9-23.7c-1.2-13.4-11.1-68.3-13-78.3C167.8,54.4,144.4,53.9,133,65.5z"/>
			<path class="st0" d="M187.8,228.1c-1,0-1.8-0.7-2-1.6l-14.3-67.1c-0.2-1.1,0.5-2.2,1.6-2.5c1.1-0.2,2.2,0.5,2.5,1.6l14.3,67.1
				c0.2,1.1-0.5,2.2-1.6,2.5C188.1,228.1,188,228.1,187.8,228.1z"/>
			<path class="st0" d="M174.1,232.5c-0.9,0-1.8-0.6-2-1.6c-0.3-1.1,0.4-2.2,1.5-2.5l26.9-6.8c1.1-0.3,2.2,0.4,2.5,1.5
				c0.3,1.1-0.4,2.2-1.5,2.5l-26.9,6.8C174.4,232.5,174.2,232.5,174.1,232.5z"/>
			<path class="st0" d="M169.6,161.4c-10.6,0-22.2-7.2-25.9-21.1c-2.6-9.6-10.5-51.1-12.1-59.4c-0.2-1,0.4-2,1.4-2.4
				c1-0.3,2.1,0.1,2.5,1c0.5,0.9,11.9,23,49.5,23c1,0,1.9,0.7,2.1,1.7c2.4,14.3,3.8,23.9,4.2,28.4c1.3,14.8-5.5,25.8-17.2,28.2
				C172.6,161.2,171.1,161.4,169.6,161.4z M137.4,89.1c4.1,21.4,8.6,43.7,10.3,50.1c4,14.9,17.3,19.3,25.5,17.6
				c9.7-1.9,15-11,13.9-23.7c-0.4-4.2-1.7-13.1-3.9-26.4C158.2,106.3,144.3,96.4,137.4,89.1z"/>
		</g>
		<g>
			<path class="st0" d="M124.8,53c-0.4,0-0.9-0.1-1.3-0.4L107.4,40c-0.9-0.7-1.1-2-0.4-2.9c0.7-0.9,2-1.1,2.9-0.4l16.2,12.5
				c0.9,0.7,1.1,2,0.4,2.9C126,52.7,125.4,53,124.8,53z"/>
			<path class="st0" d="M130.8,49.7c-1,0-1.9-0.7-2.1-1.8l-4.4-28.1c-0.2-1.1,0.6-2.2,1.7-2.4c1.1-0.2,2.2,0.6,2.4,1.7l4.4,28.1
				c0.2,1.1-0.6,2.2-1.7,2.4C131,49.7,130.9,49.7,130.8,49.7z"/>
			<path class="st0" d="M137.5,49.7c-0.5,0-1-0.2-1.4-0.5c-0.8-0.8-0.9-2.1-0.1-2.9l14.9-16.4c0.8-0.8,2.1-0.9,2.9-0.1
				c0.8,0.8,0.9,2.1,0.1,2.9l-14.9,16.4C138.7,49.5,138.1,49.7,137.5,49.7z"/>
		</g>
	</g>
</g>
</svg>
