<svg xmlns="http://www.w3.org/2000/svg" viewBox="0 0 250 250"><defs><style>.a{fill:#38515e;}</style></defs><title>iconos</title><path class="a" d="M122.27,203.69H42.11c-7.93,0-11.21-3.33-11.21-11.35,0-27.84.07-55.68-.06-83.52,0-5.33,2-8.82,6.77-11.13,6-2.91,11.88-6.21,17.9-9.15,2.09-1,2.93-2.16,2.89-4.59-.17-9.45-.08-18.9-.06-28.35,0-6.78,3.58-10.42,10.28-10.42q53.8,0,107.6,0c6.49,0,10.12,3.7,10.14,10.26,0,9.45.11,18.9-.06,28.35-.05,2.54.85,3.75,3,4.81,6.11,3,12.07,6.27,18.16,9.31,4.37,2.18,6.37,5.48,6.36,10.45-.1,28.15,0,56.29,0,84.43,0,7.5-3.45,10.89-11.06,10.9Zm.39-152.41H69.05c-3.68,0-4.6.86-4.6,4.39,0,20.82,0,41.63.08,62.44a5.1,5.1,0,0,0,1.94,3.6c9.87,7,19.84,13.78,29.79,20.62,6.62,4.54,6.66,4.55,13.15-.09,6.32-4.53,13.22-5.81,20.45-2.95a40.37,40.37,0,0,1,9.27,5.73c2.1,1.6,3.52,1.41,5.57,0q16.58-11.64,33.34-23a4.71,4.71,0,0,0,2.26-4.48c-.07-20.3,0-40.61-.05-60.91,0-4.67-.64-5.32-5.21-5.33Zm78.83,146.18c-1.18-1-1.77-1.47-2.42-1.94q-33.24-23.9-66.51-47.79c-7.15-5.14-13.29-5.08-20.42.1l-65,47.28c-.84.61-1.63,1.3-2.94,2.35ZM97.71,150.77,37.3,109.13V194.7Zm49.45-.09c20.28,14.57,40.14,28.84,60.3,43.34V109.15Zm39.41-56.63v22.78l19-12.93ZM39.15,103.86l19,12.93V94.05Z"/><path class="a" d="M122.52,71c1-.88,2-1.76,3-2.56,5.31-4.14,11.08-6.6,17.78-3.81s9.72,8.56,10.82,15.45a20.19,20.19,0,0,1-2.35,12.66c-6.08,11.85-15.2,21.23-24.87,30.11a6.7,6.7,0,0,1-9.23,0c-9.73-9-18.89-18.45-25-30.43a20.92,20.92,0,0,1-.4-18.8c4.33-9.67,14.1-12.93,23.25-7.64C118,67.32,120,69.14,122.52,71Zm24.34,17.57A16.69,16.69,0,0,0,147.42,78c-.08-.31-.18-.6-.28-.89-2.65-7.43-9.22-9.67-15.82-5.34a30.93,30.93,0,0,0-5.26,4.58c-3.28,3.42-4.15,3.42-7.53-.08a32.71,32.71,0,0,0-5.22-4.63c-6.1-4.12-12.51-2.11-15.47,4.66-2.32,5.29-1.49,10.28,1.27,15.14,5.64,9.92,13.44,18,21.62,25.83a3.07,3.07,0,0,0,3,.12c8.37-7.88,16.43-16.07,22-26.29A19.63,19.63,0,0,0,146.86,88.52Z"/></svg>