<?xml version="1.0" encoding="utf-8"?>
<!-- Generator: Adobe Illustrator 22.0.1, SVG Export Plug-In . SVG Version: 6.00 Build 0)  -->
<svg version="1.0" id="Capa_1" xmlns="http://www.w3.org/2000/svg" xmlns:xlink="http://www.w3.org/1999/xlink" x="0px" y="0px"
	 viewBox="0 0 250 250" style="enable-background:new 0 0 250 250;" xml:space="preserve">
<style type="text/css">
	.st0{fill:#38515E;}
	.st1{fill:#FFFFFF;}
</style>
<g>
	<g>
		<path class="st0" d="M56.4,205.2h-3.8l-1.1-3.5h-6.2l-1.1,3.5h-3.8l6-17.1h4.1L56.4,205.2z M46.9,196.7l-0.7,2.1h4.3l-0.7-2.1
			l-1.4-4.9L46.9,196.7z"/>
		<path class="st0" d="M65.5,195.6l2.2-7.4h3.8l-5.8,17.1h-3.4l-5.8-17.1h3.8l2.3,7.4l1.5,5.6L65.5,195.6z"/>
		<path class="st0" d="M77.7,205.2h-3.5v-17.1h3.5V205.2z"/>
		<path class="st0" d="M94.6,203.3c-1.6,1.7-3.5,2.5-5.8,2.5c-2.3,0-4.2-0.8-5.8-2.5c-1.5-1.7-2.3-3.9-2.3-6.6
			c0-2.7,0.8-4.8,2.3-6.5c1.5-1.6,3.4-2.4,5.8-2.4c2.3,0,4.3,0.8,5.8,2.4c1.5,1.6,2.3,3.8,2.3,6.5C96.9,199.4,96.1,201.6,94.6,203.3
			z M85.5,201.1c0.8,1.1,1.9,1.7,3.3,1.7s2.5-0.6,3.4-1.7c0.8-1.1,1.2-2.5,1.2-4.4c0-1.8-0.4-3.2-1.2-4.2c-0.8-1.1-1.9-1.6-3.4-1.6
			c-1.4,0-2.5,0.5-3.3,1.6c-0.8,1.1-1.2,2.5-1.2,4.2C84.3,198.5,84.7,200,85.5,201.1z M89.3,186.9H87l1.1-3.4h4.1L89.3,186.9z"/>
		<path class="st0" d="M110.1,199.1v-10.9h3.5v17.1h-3.5l-6.8-10.9v10.9h-3.5v-17.1h3.5L110.1,199.1z"/>
		<path class="st0" d="M132.4,196.3h5v2.9h-5v5.2h-3.1v-5.2h-5v-2.9h5v-5.1h3.1V196.3z"/>
		<path class="st0" d="M145.9,188.2h13.8v3.2h-5.1v13.9H151v-13.9h-5.1V188.2z"/>
		<path class="st0" d="M172.4,197c0.8,0.2,1.5,0.5,1.8,0.9c0.4,0.5,0.6,1.1,0.7,1.8l0.7,5.4H172l-0.4-4.4c-0.1-0.8-0.3-1.3-0.7-1.7
			c-0.4-0.4-1-0.5-1.9-0.5h-3.1v6.6h-3.5v-17.1h8c1.9,0,3.3,0.4,4.1,1.3c0.8,0.9,1.3,2,1.3,3.4C175.7,195.1,174.6,196.5,172.4,197z
			 M165.9,191.1v4.6h3.4c1,0,1.7-0.2,2.2-0.6c0.5-0.4,0.7-1,0.7-1.8c0-0.7-0.2-1.2-0.6-1.6s-1-0.6-1.8-0.6H165.9z"/>
		<path class="st0" d="M182.7,197.9v4.3h9.1v3h-12.6v-17.1h12.4v3h-8.9v3.7h8v3H182.7z"/>
		<path class="st0" d="M205.1,199.1v-10.9h3.5v17.1h-3.5l-6.8-10.9v10.9h-3.5v-17.1h3.5L205.1,199.1z"/>
	</g>
	<g>
		<path class="st0" d="M218.6,139.8c2.4,3.2,4.6,6.1,6.7,9c0.3,0.4,0.8,0.8,0.9,1.3c0.1,0.5-0.1,1.3-0.4,1.6c-0.2,0.2-1.1,0-1.5-0.2
			c-0.3-0.2-0.6-0.6-0.8-1c-1.2-2.6-3.3-3-6-3c-17.2,0.1-34.5,0.1-51.7,0c-1.4,0-2.5,0.3-3.2,1.6c-0.4,0.7-0.9,1.5-1.6,2
			c-0.5,0.4-1.4,0.7-1.9,0.5c-0.9-0.4-0.7-1.3-0.1-2.1c2-2.7,4.1-5.4,6.1-8.1c0.3-0.4,0.6-0.9,1.2-1.7c-2.2,0-4,0-5.8,0
			c-5.1,0-8.1-3-8.1-8.1c0-20.9,0-41.8,0-62.7c0-5.4,2.8-9.2,6.9-12.3c4.8-3.7,10.3-5.4,16.2-6.4c12.3-2.1,24.6-2.1,36.8,0.6
			c4.8,1,9.3,2.7,13.2,5.6c4.8,3.6,7.3,8.1,7.3,14.3c-0.1,19.6-0.2,39.2,0,58.8c0.1,8-5.2,10.3-10.4,10.3
			C221.3,139.8,220.2,139.8,218.6,139.8z M155,104.8c0.5,0,0.9,0.1,1.3,0.1c24.1,0,48.1,0,72.2,0c1.4,0,1.6-0.6,1.6-1.7
			c0-8.4,0-16.8,0-25.1c0-0.5-0.1-1-0.1-1.6c-25,0-49.9,0-74.9,0C155,85.8,155,95.2,155,104.8z M155.1,107.4
			c-0.1,0.5-0.1,0.7-0.1,0.9c0,8.1,0,16.2,0,24.3c0,2.8,2.1,4.6,5.1,4.6c20.9,0,41.8,0,62.7,0c5,0,7.3-2.3,7.3-7.3
			c0-6.8,0-13.5,0-20.3c0-2.2,0-2.2-2.2-2.2c-23.6,0-47.1,0-70.7,0C156.5,107.4,155.9,107.4,155.1,107.4z M155.2,73.7
			c0.6,0,1.2,0,1.8,0c23.7,0,47.3,0,71,0c0.3,0,0.7,0.1,1,0c0.4-0.2,1-0.6,1.1-1c0.7-6.2-1.4-11.1-6.7-14.6
			c-3.2-2.1-6.6-3.5-10.3-4.4c-11.9-2.9-23.8-2.9-35.8-1.1c-5.6,0.8-10.9,2.4-15.6,5.6C156,61.9,154,67,155.2,73.7z M219.2,144.9
			c-1.2-1.6-2.1-2.9-3.2-4.2c-0.4-0.5-1.2-0.9-1.8-0.9c-14.5-0.1-29,0-43.5,0c-0.4,0-1,0-1.2,0.2c-1.2,1.5-2.4,3.1-3.7,4.9
			C183.7,144.9,201.3,144.9,219.2,144.9z"/>
		<path class="st0" d="M178.6,121.3c0,3.9-3.2,7.1-7,7.1c-3.9,0-7.1-3.2-7.1-7c0-3.9,3.2-7.1,7-7.1
			C175.4,114.2,178.6,117.4,178.6,121.3z M171.5,116.8c-2.5,0-4.5,2-4.5,4.5c0,2.4,2.1,4.5,4.5,4.5c2.4,0,4.4-2,4.4-4.4
			C176,118.9,174,116.8,171.5,116.8z"/>
		<path class="st0" d="M213.4,114.2c3.9,0,7.1,3.1,7.1,7c0,3.9-3.1,7.1-7,7.1c-3.9,0-7.1-3.1-7.1-7
			C206.3,117.5,209.5,114.2,213.4,114.2z M217.9,121.3c0-2.5-1.9-4.5-4.5-4.5c-2.5,0-4.5,2.1-4.5,4.5c0,2.4,2.1,4.4,4.4,4.5
			C215.8,125.9,217.9,123.8,217.9,121.3z"/>
		<path class="st0" d="M192.5,68.5c-2.6,0-5.3,0-7.9,0c-3,0-5.1-2-5.2-5c-0.1-3.1,1.7-5.4,4.8-5.5c5.5-0.1,11-0.1,16.6,0
			c2.9,0.1,4.9,2.5,4.8,5.4c-0.1,2.9-2.2,5-5.2,5.1C197.8,68.6,195.2,68.5,192.5,68.5z M192.5,66c2.5,0,4.9,0,7.4,0c2,0,3.1-1,3-2.7
			c0-1.7-1.1-2.7-2.9-2.7c-5,0-10.1,0-15.1,0c-1.9,0-2.9,1.1-2.9,2.8c0,1.7,1,2.6,2.9,2.7C187.5,66,190,66,192.5,66z"/>
	</g>
	<g>
		<path class="st0" d="M75.4,111.1c-0.2,3.3-0.4,6.5-0.6,9.7c-0.1,1.2-0.1,2.4-0.2,3.6c-0.3,4-0.3,3.9,3.3,5.8
			c3.2,1.7,6.4,3.4,9.7,5c2.6,1.4,4,3.5,3.9,6.5c0,2.6,0,5.1,0,7.7c0,2-0.5,2.5-2.7,2.1c-3.4-0.7-6.9-1.5-10.3-2.2
			c-4-0.9-7.9-1.8-11.9-2.6c-1.1-0.2-2.3-0.2-3.3,0c-7.2,1.5-14.4,3.1-21.7,4.7c-2.8,0.6-3.2,0.3-3.3-2.6c0-2.3,0-4.6,0-7
			c0-3,1.3-5.1,3.9-6.5c3.7-2,7.4-4,11.1-6.1c0.5-0.3,1.2-1,1.2-1.5c-0.2-5.4-0.5-10.8-0.7-16.5c-3,0.6-5.7,1.1-8.5,1.6
			c-11.6,2.3-23.2,4.6-34.9,6.9c-2.2,0.4-2.7,0-2.7-2.2c0-2.4,0-4.9,0-7.3c-0.1-4,1.7-6.9,5.1-9c12.5-7.6,25-15.3,37.5-22.9
			c1.4-0.8,1.8-1.7,1.7-3.3c-0.3-3.7-0.5-7.4-0.6-11.1c-0.4-8.8,2.2-16.7,7.7-23.6c3.3-4.1,8.3-4.1,11.6,0.1
			c6,7.6,8.2,16.2,7.4,25.8c-0.3,3-0.3,6-0.6,8.9c-0.1,1.3,0.3,2,1.4,2.7c12.3,7.5,24.5,15.1,36.9,22.5c4.4,2.6,6.7,6,6.3,11.2
			c-0.1,2,0,3.9,0,5.9c0,2.2-0.5,2.7-2.7,2.3c-5.5-1.1-11-2.2-16.5-3.3c-8.6-1.7-17.3-3.4-25.9-5.1
			C76.6,111.2,76.1,111.2,75.4,111.1z M88.6,148.5c0-2.3-0.1-4.3,0-6.3c0.1-2.2-0.9-3.6-2.8-4.5c-4.2-2.1-8.3-4.4-12.5-6.5
			c-1.5-0.8-2-1.7-1.9-3.4c0.4-5.4,0.7-10.8,1.1-16.2c0.9-14.8,1.7-29.6,2.8-44.4c0.7-9.1-0.8-17.6-6.7-24.9c-2.3-2.8-5-2.8-7.3,0
			c-5.3,6.6-7.4,14.2-7,22.7c1.1,21.1,2.2,42.1,3.3,63.2c0.1,1.5-0.4,2.4-1.8,3.1c-4,2.1-8,4.2-11.9,6.5c-1,0.6-2.3,1.8-2.4,2.8
			c-0.4,2.5-0.1,5.2-0.1,7.8c0.5,0,0.8,0,1.1-0.1c6.9-1.5,13.8-3,20.8-4.5c1-0.2,2-0.3,3-0.1c2.2,0.4,4.3,0.9,6.5,1.4
			C77.9,146.2,83.1,147.3,88.6,148.5z M119.3,116.7c0-2.4,0-4.4,0-6.5c0-2.9-1.2-5.1-3.7-6.6C103.3,96.1,91,88.5,78.7,81
			c-0.4-0.3-0.9-0.4-1.5-0.7c-0.5,9.1-1.1,17.9-1.6,26.7c-0.1,1.1,0.5,1.2,1.4,1.4c9.5,1.9,19,3.7,28.5,5.6
			C110,114.9,114.5,115.7,119.3,116.7z M52.3,80.6c-0.5,0.2-0.8,0.2-0.9,0.4c-12.5,7.7-25.1,15.3-37.6,23c-1.6,1-2.7,2.4-2.9,4.3
			c-0.2,2.7,0,5.4,0,8.2c0.3,0,0.6,0,0.9,0c13.5-2.7,27.1-5.3,40.6-8c1.1-0.2,1.4-0.8,1.3-1.8c-0.3-6-0.6-12-0.9-18
			C52.6,86.1,52.4,83.5,52.3,80.6z"/>
	</g>
</g>
</svg>
